<?xml version="1.0" encoding="utf-8"?>
<!-- Generator: Adobe Illustrator 24.3.0, SVG Export Plug-In . SVG Version: 6.00 Build 0)  -->
<svg version="1.1" id="Layer_1" xmlns="http://www.w3.org/2000/svg" xmlns:xlink="http://www.w3.org/1999/xlink" x="0px" y="0px"
	 viewBox="0 0 579 180" style="enable-background:new 0 0 579 180;" xml:space="preserve">
<style type="text/css">
	.st0{enable-background:new    ;}
	.st1{fill:#FFFFFF;}
</style>
<g class="st0">
	<path class="st1" d="M36.2,67.6c-3.7,1.6-7.2-0.4-9.8-2c-2-1.4-4.3-2.7-7.4-3.5c-10,0-15.1-8-15.1-18.6c0-11.8,6-18.5,15-18.5
		c9.8,0,15.1,7.4,15.1,18.6c0,8-2.7,13.6-7.4,16.5c1.3,0.5,2.9,1.5,4,2.1c1.9,1.2,3.8,1.9,7.3,1.3L36.2,67.6z M18.8,29.7
		c-5.8,0-8.3,4.6-8.3,13.5c0,10.8,3.2,14.4,8.5,14.4c5.3,0,8.1-3.6,8.1-13.6C27.1,34.7,25.1,29.7,18.8,29.7z"/>
	<path class="st1" d="M58.8,62.4c-1.1-0.8-1.8-1.8-2.3-3.3c-1.9,2.2-4.5,3.2-7.5,3.2c-3,0-5.3-1-6.6-2.6c-1-1.2-1.5-3-1.5-6.2V35.7
		l5.6-1v17.6c0,3.3,0.5,5.7,3.8,5.7c1.9,0,4.3-1.6,5.1-3.4V35.7l5.5-1v19.8c0,4,1.6,5.3,1.6,5.3L58.8,62.4z"/>
	<path class="st1" d="M74.7,50v0.4c0,3.6,1.4,7.5,6.5,7.5c2.4,0,4.6-0.9,6.6-2.6l2.2,3.5c-2.8,2.3-5.9,3.5-9.5,3.5
		c-7.4,0-12.1-5.4-12.1-13.8c0-4.6,1-7.7,3.3-10.3c2.1-2.4,4.7-3.5,8.1-3.5c2.6,0,5,0.7,7.2,2.7c2.3,2.1,3.4,5.3,3.4,11.4V50H74.7z
		 M79.7,39c-3.2,0-5,2.5-5,6.8h9.7C84.4,41.5,82.6,39,79.7,39z"/>
	<path class="st1" d="M101.9,50v0.4c0,3.6,1.4,7.5,6.5,7.5c2.4,0,4.6-0.9,6.6-2.6l2.2,3.5c-2.8,2.3-5.9,3.5-9.5,3.5
		c-7.4,0-12.1-5.4-12.1-13.8c0-4.6,1-7.7,3.3-10.3c2.1-2.4,4.7-3.5,8.1-3.5c2.6,0,5,0.7,7.2,2.7c2.3,2.1,3.4,5.3,3.4,11.4V50H101.9z
		 M106.9,39c-3.2,0-5,2.5-5,6.8h9.7C111.6,41.5,109.8,39,106.9,39z"/>
	<path class="st1" d="M138.7,61.6V44.1c0-3.6-0.8-4.6-3-4.6c-1.7,0-4.1,1.2-5.8,3v19.1h-5.6V42.2c0-2.8-0.3-4.4-1-6.2l5.2-1.5
		c0.6,1.2,0.9,2.3,0.9,3.7c2.8-2.4,5.3-3.6,8.1-3.6c4.1,0,6.9,2.4,6.9,7.3v19.7H138.7z"/>
	<path class="st1" d="M160.5,62.3c-3.2,0-6.7-1-10.1-2.9l2-4.1c2.3,1.4,5.6,2.8,8.5,2.8c2.5,0,4.3-1.5,4.3-3.7c0-2-1.3-3.1-4.3-3.7
		l-3.2-0.7c-4-0.8-6.3-3.5-6.3-7.2c0-4.9,4-8.4,9.8-8.4c3.6,0,6.4,1.1,8.7,2.3l-1.9,4c-2.4-1.3-4.4-1.9-6.4-1.9c-2.4,0-4,1.4-4,3.4
		c0,1.6,0.9,2.4,3.5,3.1l3.3,0.8c5.3,1.4,6.7,4.3,6.7,7.3C171.1,58.7,166.8,62.3,160.5,62.3z"/>
	<path class="st1" d="M183.4,62.1c-5.8,0-5.8-5.2-5.8-7.4V32.3c0-3.6-0.2-5.5-0.5-7.7l5.9-1.3c0.4,1.6,0.5,3.8,0.5,7.2v22.3
		c0,3.5,0.2,4.1,0.6,4.7c0.3,0.5,1.2,0.7,1.9,0.4l0.9,3.5C185.8,61.9,184.7,62.1,183.4,62.1z"/>
	<path class="st1" d="M209.5,62.7c-1.6-0.6-3-1.9-3.6-3.5c-2.1,2.4-4.4,3.2-7.2,3.2c-6,0-8.7-3.3-8.7-7.9c0-6.1,4.6-9.2,13-9.2h1.8
		v-1.4c0-3-0.5-4.6-3.6-4.6c-3.8,0-7.9,3-7.9,3l-2.5-4.1c4-2.5,7.2-3.6,11.2-3.6c4.1,0,6.9,1.5,8,4.4c0.5,1.1,0.5,2.5,0.4,6.4
		l-0.1,7.5c-0.1,3.5,0.3,4.7,2.3,6.1L209.5,62.7z M203.6,49.1c-5.7,0-7.4,1.7-7.4,5c0,2.5,1.4,4.1,3.6,4.1c1.8,0,3.6-1.1,4.7-2.8
		l0.1-6.2C204.6,49.2,204,49.1,203.6,49.1z"/>
	<path class="st1" d="M233.5,61.6V44.1c0-3.6-0.8-4.6-3-4.6c-1.7,0-4.1,1.2-5.8,3v19.1h-5.6V42.2c0-2.8-0.3-4.4-1-6.2l5.2-1.5
		c0.6,1.2,0.9,2.3,0.9,3.7c2.8-2.4,5.3-3.6,8.1-3.6c4.1,0,6.9,2.4,6.9,7.3v19.7H233.5z"/>
	<path class="st1" d="M264.1,61.6c-0.3-0.6-0.3-0.9-0.5-2c-1.8,1.8-3.8,2.6-6.4,2.6c-6.7,0-10.8-5.3-10.8-13.5
		c0-8.3,4.6-13.9,10.9-13.9c2.2,0,4.1,0.7,5.7,2.4c0,0-0.2-2-0.2-4.3v-9.6l5.7,0.9v28.3c0,5.2,0.3,7.9,0.8,9.2H264.1z M262.9,41.5
		c-1.3-1.4-2.9-2.1-4.8-2.1c-3.6,0-5.3,2.9-5.3,9.3c0,5.8,1.1,8.7,5.5,8.7c2.1,0,3.8-1.2,4.6-2.5V41.5z"/>
</g>
<g class="st0">
	<path class="st1" d="M301.6,63c-2.2,0-4.2-0.4-6.1-1.1c-1.8-0.8-3.4-2-4.8-3.6c-2.6-3.2-3.9-7.7-3.9-13.5c0-3.1,0.4-5.8,1.1-8.1
		c0.7-2.3,1.9-4.3,3.5-6c2.5-2.8,5.6-4.2,9.5-4.2c3.6,0,6.7,1.1,9.3,3.2l-1.3,1.9c-1.4-0.9-2.6-1.6-3.9-2c-1.2-0.4-2.6-0.6-4-0.6
		c-2,0-3.9,0.5-5.4,1.5c-1.6,1-2.8,2.4-3.6,4.3c-0.6,1.5-1.1,3.1-1.4,4.8c-0.3,1.6-0.5,3.5-0.5,5.4c0,2.4,0.2,4.6,0.7,6.6
		c0.5,2,1.1,3.6,1.9,4.8c1,1.4,2.3,2.5,4,3.2c1.7,0.7,3.4,1.1,5.3,1.1c1.2,0,2.4-0.1,3.5-0.4s2.1-0.7,3-1.2V46.7h-8.2l-0.6-2.4h11.5
		v16.2c-1.3,0.8-2.8,1.4-4.4,1.9S303.4,63,301.6,63z"/>
	<path class="st1" d="M328.8,63c-2,0-3.7-0.4-5.1-1.2c-1.4-0.8-2.5-1.9-3.3-3.1c-1.6-2.4-2.4-5.5-2.4-9.3c0-2,0.2-3.8,0.7-5.5
		c0.5-1.6,1.1-3,2-4.2c0.8-1.1,1.9-2,3.2-2.7c1.3-0.7,2.9-1.1,4.8-1.1c2.1,0,3.9,0.5,5.3,1.4c1.4,0.9,2.4,1.9,3.2,3.1
		c0.8,1.1,1.3,2.5,1.7,4c0.4,1.5,0.6,3.3,0.6,5.4c0,1.8-0.2,3.3-0.5,4.7c-0.3,1.4-0.8,2.6-1.5,3.7c-0.8,1.5-1.9,2.6-3.4,3.5
		C332.6,62.6,330.9,63,328.8,63z M328.9,60.7c1.6,0,2.9-0.4,3.9-1.1c1-0.8,1.8-1.7,2.3-2.8c0.2-0.5,0.4-1,0.6-1.5
		c0.2-0.5,0.3-1,0.4-1.5c0.1-0.5,0.2-1.1,0.2-1.7c0-0.6,0.1-1.3,0.1-2c0-1.9-0.1-3.5-0.4-4.8c-0.3-1.3-0.6-2.4-1.1-3.4
		c-0.5-1-1.3-1.9-2.4-2.5c-1.1-0.7-2.3-1-3.7-1c-1.5,0-2.7,0.3-3.7,1s-1.8,1.4-2.3,2.3c-0.5,0.9-0.9,2-1.1,3.2s-0.4,2.7-0.4,4.3
		c0,1.9,0.2,3.5,0.5,5c0.3,1.5,0.7,2.7,1.3,3.6c0.5,0.8,1.2,1.5,2.3,2.2C326.2,60.4,327.5,60.7,328.9,60.7z"/>
	<path class="st1" d="M342.5,36.7l2.9-0.6l6.9,20.1c0.2,0.7,0.4,1.4,0.6,2c0.2,0.7,0.3,1.1,0.3,1.2h0.1c0-0.2,0.1-0.6,0.3-1.2
		s0.4-1.3,0.7-2l6.9-19.7h3l-9.6,26.2h-2.8L342.5,36.7z"/>
	<path class="st1" d="M378.8,63c-1.8,0-3.3-0.3-4.7-1c-1.4-0.7-2.5-1.6-3.5-2.8c-0.9-1.2-1.6-2.6-2.1-4.3c-0.5-1.7-0.7-3.5-0.7-5.6
		c0-2.2,0.3-4.1,0.8-5.7c0.5-1.6,1.3-2.9,2.3-4.2c0.9-1,1.9-1.9,3.1-2.5s2.6-1,4.2-1c1.4,0,2.6,0.2,3.7,0.7c1.1,0.5,2,1.1,2.8,1.9
		c0.5,0.5,0.9,1.1,1.3,1.7c0.4,0.6,0.7,1.3,0.9,2.1c0.2,0.8,0.4,1.8,0.5,2.8c0.1,1.1,0.2,2.3,0.2,3.8v0.6H371v1.4
		c0,1.4,0.2,2.6,0.5,3.7c0.3,1.1,0.7,2,1.2,2.7c1.5,2.1,3.7,3.2,6.7,3.2c2.7,0,4.9-0.8,6.6-2.3l1.1,1.8c-1.1,0.9-2.3,1.7-3.7,2.2
		C381.9,62.7,380.4,63,378.8,63z M384.6,47.4c0-1.6-0.1-2.9-0.4-3.9c-0.2-1-0.6-1.9-1-2.6c-0.5-0.8-1.2-1.5-2.1-2
		c-0.9-0.5-2-0.8-3.2-0.8c-2,0-3.6,0.8-4.9,2.3c-1.3,1.5-2,3.8-2.1,6.9H384.6z"/>
	<path class="st1" d="M394.6,42c0-1.7-0.1-3-0.4-3.8s-0.4-1.3-0.5-1.4l2.8-0.7c0.1,0.1,0.2,0.6,0.5,1.3c0.3,0.7,0.4,1.8,0.3,3.1
		c0.8-1.1,1.7-2.1,2.8-2.9c0.8-0.6,1.5-1,2.2-1.2c0.7-0.2,1.5-0.4,2.2-0.4c0.3,0,0.7,0,0.9,0.1c0.3,0.1,0.4,0.1,0.5,0.2l-1.1,3
		c-0.3-0.1-0.7-0.2-1.1-0.2c-1.7,0-3.2,0.7-4.5,2c-0.3,0.3-0.6,0.7-0.9,1s-0.4,0.6-0.5,0.9c-0.1,0.3-0.2,0.7-0.3,1.1
		c-0.1,0.4-0.1,0.9-0.1,1.4v17.1h-2.8V42z"/>
	<path class="st1" d="M410.3,42c0-1.5-0.1-2.6-0.3-3.3s-0.4-1.4-0.6-1.8l2.8-0.7c0.1,0.1,0.2,0.5,0.5,1.3c0.2,0.7,0.4,1.7,0.4,2.8
		c2.6-2.8,5.4-4.2,8.3-4.2c1.3,0,2.5,0.3,3.5,0.9c1,0.6,1.8,1.3,2.3,2.2c0.7,1,1,2.2,1,3.6v19.7h-2.8V44.2c0-1.2-0.1-2.1-0.3-2.8
		s-0.5-1.2-0.9-1.7c-0.3-0.4-0.8-0.7-1.4-0.9c-0.6-0.2-1.2-0.3-2-0.3c-1.2,0-2.5,0.4-3.9,1.1c-1.4,0.7-2.7,1.7-3.7,2.9v19.9h-2.8V42
		z"/>
	<path class="st1" d="M437.1,42c0-1.7-0.1-3-0.4-3.8c-0.2-0.8-0.4-1.3-0.5-1.4l2.8-0.6c0.1,0.1,0.2,0.5,0.5,1.3
		c0.2,0.7,0.4,1.6,0.4,2.7c0.4-0.5,0.9-1,1.5-1.5c0.6-0.5,1.2-0.9,1.9-1.3c0.7-0.4,1.4-0.7,2.1-0.9c0.7-0.2,1.4-0.3,2.1-0.3
		c1.6,0,2.9,0.4,3.9,1.3c1.1,0.9,1.8,2,2.2,3.3c1.1-1.4,2.4-2.5,3.8-3.3c1.5-0.8,2.9-1.3,4.3-1.3c2,0,3.5,0.6,4.7,1.9
		c1.1,1.3,1.7,3,1.7,5v19.5h-2.9V43.2c0-1.5-0.3-2.6-1-3.4c-0.7-0.8-1.7-1.2-3.2-1.2c-1.2,0-2.4,0.4-3.6,1.1
		c-1.2,0.8-2.4,1.9-3.6,3.3v19.5H451V43.5c0-1.6-0.3-2.8-1-3.6c-0.4-0.4-0.8-0.7-1.3-0.9c-0.5-0.2-1.2-0.3-2-0.3
		c-2.3,0-4.6,1.3-7,3.9v19.9h-2.7V42z"/>
	<path class="st1" d="M486.6,63c-1.8,0-3.3-0.3-4.7-1c-1.4-0.7-2.5-1.6-3.5-2.8s-1.6-2.6-2.1-4.3c-0.5-1.7-0.7-3.5-0.7-5.6
		c0-2.2,0.3-4.1,0.8-5.7c0.5-1.6,1.3-2.9,2.3-4.2c0.9-1,2-1.9,3.1-2.5c1.2-0.6,2.6-1,4.2-1c1.4,0,2.6,0.2,3.7,0.7
		c1.1,0.5,2,1.1,2.8,1.9c0.5,0.5,0.9,1.1,1.3,1.7c0.4,0.6,0.7,1.3,0.9,2.1c0.2,0.8,0.4,1.8,0.5,2.8c0.1,1.1,0.2,2.3,0.2,3.8v0.6
		h-16.6v1.4c0,1.4,0.2,2.6,0.5,3.7c0.3,1.1,0.7,2,1.2,2.7c1.5,2.1,3.7,3.2,6.7,3.2c2.7,0,4.9-0.8,6.6-2.3l1.1,1.8
		c-1.1,0.9-2.3,1.7-3.7,2.2C489.7,62.7,488.2,63,486.6,63z M492.4,47.4c0-1.6-0.1-2.9-0.4-3.9c-0.2-1-0.6-1.9-1-2.6
		c-0.5-0.8-1.2-1.5-2.1-2c-0.9-0.5-2-0.8-3.2-0.8c-2,0-3.6,0.8-4.9,2.3c-1.3,1.5-2,3.8-2.1,6.9H492.4z"/>
	<path class="st1" d="M502.4,42c0-1.5-0.1-2.6-0.3-3.3s-0.4-1.4-0.6-1.8l2.8-0.7c0.1,0.1,0.2,0.5,0.5,1.3c0.2,0.7,0.4,1.7,0.4,2.8
		c2.6-2.8,5.4-4.2,8.3-4.2c1.3,0,2.5,0.3,3.5,0.9c1,0.6,1.8,1.3,2.3,2.2c0.7,1,1,2.2,1,3.6v19.7h-2.8V44.2c0-1.2-0.1-2.1-0.3-2.8
		s-0.5-1.2-0.9-1.7c-0.3-0.4-0.8-0.7-1.4-0.9c-0.6-0.2-1.2-0.3-2-0.3c-1.2,0-2.5,0.4-3.9,1.1c-1.4,0.7-2.7,1.7-3.7,2.9v19.9h-2.8V42
		z"/>
	<path class="st1" d="M534.7,63.1c-0.7,0-1.4-0.1-1.9-0.3c-0.5-0.2-1-0.4-1.4-0.7c-1.4-0.8-2-2.4-2-4.8V38.7H526v-2.1h3.4
		c0-0.7,0-1.4,0.1-2.1c0-0.7,0.1-1.4,0.1-2c0.1-0.6,0.1-1.2,0.1-1.6c0-0.5,0.1-0.8,0.1-0.9l3-0.6c0,0.1-0.1,0.4-0.2,0.9
		c-0.1,0.5-0.1,1-0.2,1.7c-0.1,0.7-0.1,1.4-0.2,2.2s-0.1,1.7-0.1,2.5h6.4l-0.9,2.1h-5.6v18c0,1.5,0.3,2.5,0.8,3.2
		c0.5,0.7,1.4,1,2.7,1c0.6,0,1.1-0.1,1.5-0.2c0.4-0.1,0.8-0.2,1.2-0.4l0.4,1.9c-0.6,0.3-1.2,0.5-1.8,0.7
		C536.3,63.1,535.5,63.1,534.7,63.1z"/>
</g>
<g class="st0">
	<path class="st1" d="M3.7,144.6v-41.5h23l-0.9,5.6H10.6v11.3h12.8v5.7H10.7v13h16.6v5.9H3.7z"/>
	<path class="st1" d="M40.9,145.3c-6.7,0-6.7-6-6.7-8.6v-25.9c0-4.1-0.2-6.4-0.6-8.9l6.8-1.5c0.5,1.9,0.5,4.4,0.5,8.3v25.7
		c0,4.1,0.2,4.7,0.7,5.5c0.4,0.5,1.4,0.8,2.2,0.5l1.1,4.1C43.7,145,42.4,145.3,40.9,145.3z"/>
	<path class="st1" d="M56.3,131.2v0.5c0,4.2,1.6,8.6,7.5,8.6c2.8,0,5.3-1,7.6-3l2.6,4c-3.2,2.7-6.8,4-10.9,4c-8.6,0-14-6.2-14-15.9
		c0-5.3,1.1-8.9,3.8-11.9c2.5-2.8,5.5-4.1,9.3-4.1c3,0,5.8,0.8,8.3,3.1c2.6,2.4,4,6.1,4,13.2v1.4H56.3z M62.2,118.5
		c-3.7,0-5.8,2.9-5.8,7.9h11.2C67.6,121.5,65.5,118.5,62.2,118.5z"/>
	<path class="st1" d="M93.4,145.4c-8.3,0-12.9-5.8-12.9-15.6c0-11,6.6-16.3,13.4-16.3c3.3,0,5.7,0.8,8.4,3.3l-3.3,4.4
		c-1.8-1.6-3.4-2.3-5.1-2.3c-2.1,0-3.8,1.1-4.8,3.1c-0.9,1.9-1.3,4.7-1.3,8.5c0,4.1,0.7,6.8,2,8.3c1,1.1,2.4,1.7,4,1.7
		c2.1,0,4.1-1,6.1-3l3.1,4C100.3,144.1,97.4,145.4,93.4,145.4z"/>
	<path class="st1" d="M118.2,145.4c-5.9,0-7.9-3.5-7.9-7.8v-18.8h-3.4v-4.6h3.4c0-2.6,0-5.2,0.3-7.5l6.8-1.6
		c-0.3,2.5-0.5,6.1-0.5,9.1h7.3l-1.7,4.6h-5.6v17c0,3.8,0.8,4.9,3.7,4.9c0.9,0,1.7-0.2,2.8-0.6l0.8,4
		C122.2,145,120.2,145.4,118.2,145.4z"/>
	<path class="st1" d="M144.9,120c-0.7-0.2-1.1-0.4-1.9-0.4c-2.8,0-5.1,2-5.7,4.5v20.5h-6.6v-21.4c0-3.8-0.4-6.3-1.1-8.2l6.1-1.6
		c0.7,1.4,1.1,3.1,1.1,4.8c2.4-3.3,4.8-4.9,7.7-4.9c1,0,1.6,0.1,2.3,0.5L144.9,120z"/>
	<path class="st1" d="M155,109.8c-2.4,0-4.3-2-4.3-4.4c0-2.5,1.9-4.4,4.4-4.4c2.3,0,4.3,1.9,4.3,4.4
		C159.5,107.8,157.5,109.8,155,109.8z M151.7,144.6v-29.9l6.7-1.2v31.1H151.7z"/>
	<path class="st1" d="M179.7,145.4c-8.3,0-12.9-5.8-12.9-15.6c0-11,6.6-16.3,13.4-16.3c3.3,0,5.7,0.8,8.4,3.3l-3.3,4.4
		c-1.8-1.6-3.4-2.3-5.1-2.3c-2.1,0-3.8,1.1-4.8,3.1c-0.9,1.9-1.3,4.7-1.3,8.5c0,4.1,0.7,6.8,2,8.3c1,1.1,2.4,1.7,4,1.7
		c2.1,0,4.1-1,6.1-3l3.1,4C186.7,144.1,183.8,145.4,179.7,145.4z"/>
	<path class="st1" d="M216.2,145.9c-1.9-0.7-3.4-2.2-4.1-4.1c-2.5,2.8-5.1,3.7-8.3,3.7c-7,0-10.1-3.8-10.1-9.1c0-7,5.3-10.6,15-10.6
		h2v-1.6c0-3.5-0.6-5.3-4.2-5.3c-4.4,0-9.1,3.5-9.1,3.5l-2.9-4.7c4.6-2.9,8.3-4.1,12.9-4.1c4.7,0,7.9,1.7,9.2,5
		c0.5,1.3,0.5,2.9,0.5,7.4l-0.1,8.7c-0.1,4.1,0.3,5.4,2.6,7L216.2,145.9z M209.3,130.3c-6.6,0-8.6,1.9-8.6,5.8
		c0,2.9,1.6,4.7,4.2,4.7c2.1,0,4.1-1.3,5.5-3.2l0.1-7.2C210.5,130.3,209.8,130.3,209.3,130.3z"/>
	<path class="st1" d="M233.9,145.3c-6.7,0-6.7-6-6.7-8.6v-25.9c0-4.1-0.2-6.4-0.6-8.9l6.8-1.5c0.5,1.9,0.5,4.4,0.5,8.3v25.7
		c0,4.1,0.2,4.7,0.7,5.5c0.4,0.5,1.4,0.8,2.2,0.5l1.1,4.1C236.6,145,235.4,145.3,233.9,145.3z"/>
	<path class="st1" d="M266,145.5c-3.7,0-7.7-1.2-11.6-3.4l2.3-4.7c2.7,1.6,6.4,3.2,9.8,3.2c2.9,0,4.9-1.7,4.9-4.3
		c0-2.3-1.5-3.5-4.9-4.3l-3.7-0.8c-4.6-1-7.3-4.1-7.3-8.3c0-5.7,4.6-9.7,11.3-9.7c4.1,0,7.4,1.3,10,2.6l-2.2,4.6
		c-2.8-1.5-5-2.2-7.4-2.2c-2.8,0-4.6,1.6-4.6,3.9c0,1.9,1,2.8,4.1,3.6l3.8,1c6.1,1.6,7.7,4.9,7.7,8.5
		C278.3,141.3,273.3,145.5,266,145.5z"/>
	<path class="st1" d="M305.6,145.9c-1.9-0.7-3.4-2.2-4.1-4.1c-2.5,2.8-5.1,3.7-8.3,3.7c-7,0-10.1-3.8-10.1-9.1c0-7,5.3-10.6,15-10.6
		h2v-1.6c0-3.5-0.6-5.3-4.2-5.3c-4.4,0-9.1,3.5-9.1,3.5l-2.9-4.7c4.6-2.9,8.3-4.1,12.9-4.1c4.7,0,7.9,1.7,9.2,5
		c0.5,1.3,0.5,2.9,0.5,7.4l-0.1,8.7c-0.1,4.1,0.3,5.4,2.6,7L305.6,145.9z M298.8,130.3c-6.6,0-8.6,1.9-8.6,5.8
		c0,2.9,1.6,4.7,4.2,4.7c2.1,0,4.1-1.3,5.5-3.2l0.1-7.2C300,130.3,299.3,130.3,298.8,130.3z"/>
	<path class="st1" d="M330.5,106.5c-1.5-0.7-2.4-1.1-3.7-1.1c-2.3,0-3.7,1.6-3.7,4.3v4.6h7.9l-1.7,4.6h-6.2v25.8h-6.5v-25.8h-2.8
		v-4.6h2.9c0,0-0.2-1.7-0.2-4.5c0-6.3,3.8-9.2,9.2-9.2c2.6,0,4.7,0.5,6.8,1.7L330.5,106.5z"/>
	<path class="st1" d="M340.9,131.2v0.5c0,4.2,1.6,8.6,7.5,8.6c2.8,0,5.3-1,7.6-3l2.6,4c-3.2,2.7-6.8,4-10.9,4c-8.6,0-14-6.2-14-15.9
		c0-5.3,1.1-8.9,3.8-11.9c2.5-2.8,5.5-4.1,9.3-4.1c3,0,5.8,0.8,8.3,3.1c2.6,2.4,4,6.1,4,13.2v1.4H340.9z M346.7,118.5
		c-3.7,0-5.8,2.9-5.8,7.9h11.2C352.1,121.5,350,118.5,346.7,118.5z"/>
	<path class="st1" d="M374.7,145.4c-5.9,0-7.9-3.5-7.9-7.8v-18.8h-3.4v-4.6h3.4c0-2.6,0-5.2,0.3-7.5l6.8-1.6
		c-0.3,2.5-0.5,6.1-0.5,9.1h7.3l-1.7,4.6h-5.6v17c0,3.8,0.8,4.9,3.7,4.9c0.9,0,1.7-0.2,2.8-0.6l0.8,4
		C378.7,145,376.7,145.4,374.7,145.4z"/>
	<path class="st1" d="M400.4,145.3c-2.5,7.3-4.7,11-11.8,12.3l-2.2-4.3c4.1-1.1,6.5-2.9,8.2-8.7h-2.1c-0.8-3.4-2-6.7-2.9-9.4
		l-6.9-20.5l6.7-1.1l5.6,18.5c0.5,1.8,1.6,6.4,1.7,6.8c0.1-0.2,1.1-4.6,2.3-8.2l5-16.4h7.1L400.4,145.3z"/>
</g>
</svg>
